HIERARCHY
ROOT Hips
{
	OFFSET 0.000000 0.000000 0.000000
	CHANNELS 6 Xposition Yposition Zposition Xrotation Yrotation Zrotation
	JOINT LeftUpLeg_virtual
	{
		OFFSET 0.000000 0.000000 0.000000
		CHANNELS 3 Xrotation Yrotation Zrotation
		JOINT LeftUpLeg
		{
			OFFSET 15.427100 -6.655098 0.678600
			CHANNELS 3 Xrotation Yrotation Zrotation
			JOINT LeftLeg
			{
				OFFSET 4.081073 -39.591068 13.024000
				CHANNELS 3 Xrotation Yrotation Zrotation
				JOINT LeftFoot
				{
					OFFSET -4.081074 -37.707932 -15.979700
					CHANNELS 3 Xrotation Yrotation Zrotation
					JOINT LeftToeBase
					{
						OFFSET 5.346399 -15.068900 20.645000
						CHANNELS 3 Xrotation Yrotation Zrotation
						JOINT LeftToe_End
						{
							OFFSET 2.754700 0.931300 11.300900
							CHANNELS 3 Xrotation Yrotation Zrotation
							End Site
							{
								OFFSET 0 0 0
							}
						}
					}
				}
			}
		}
	}
	JOINT RightUpLeg_virtual
	{
		OFFSET 0.000000 0.000000 0.000000
		CHANNELS 3 Xrotation Yrotation Zrotation
		JOINT RightUpLeg
		{
			OFFSET -15.569500 -6.655098 0.678600
			CHANNELS 3 Xrotation Yrotation Zrotation
			JOINT RightLeg
			{
				OFFSET -4.081825 -39.591045 13.023800
				CHANNELS 3 Xrotation Yrotation Zrotation
				JOINT RightFoot
				{
					OFFSET 4.081824 -37.707954 -15.979600
					CHANNELS 3 Xrotation Yrotation Zrotation
					JOINT RightToeBase
					{
						OFFSET -5.346400 -15.068900 20.645000
						CHANNELS 3 Xrotation Yrotation Zrotation
						JOINT RightToe_End
						{
							OFFSET -2.754700 0.931300 11.300900
							CHANNELS 3 Xrotation Yrotation Zrotation
							End Site
							{
								OFFSET 0 0 0
							}
						}
					}
				}
			}
		}
	}
	JOINT Spine_virtual
	{
		OFFSET 0.000000 0.000000 0.000000
		CHANNELS 3 Xrotation Yrotation Zrotation
		JOINT Spine
		{
			OFFSET -0.279200 12.230698 -2.892100
			CHANNELS 3 Xrotation Yrotation Zrotation
			JOINT Spine1
			{
				OFFSET -0.232667 10.192268 -1.242267
				CHANNELS 3 Xrotation Yrotation Zrotation
				JOINT Spine1_split
				{
					OFFSET -0.232667 10.192268 -1.242267
					CHANNELS 3 Xrotation Yrotation Zrotation
					JOINT Spine2
					{
						OFFSET -0.232667 10.192268 -1.242267
						CHANNELS 3 Xrotation Yrotation Zrotation
						JOINT Neck_virtual
						{
							OFFSET 0.000000 0.000000 0.000000
							CHANNELS 3 Xrotation Yrotation Zrotation
							JOINT Neck
							{
								OFFSET -0.418800 17.814194 8.416900
								CHANNELS 3 Xrotation Yrotation Zrotation
								JOINT Head
								{
									OFFSET 0.000000 7.031097 3.806800
									CHANNELS 3 Xrotation Yrotation Zrotation
									JOINT HeadTop_End
									{
										OFFSET 0.000000 24.646606 12.978600
										CHANNELS 3 Xrotation Yrotation Zrotation
										End Site
										{
											OFFSET 0 0 0
										}
									}
								}
							}
						}
						JOINT LeftShoulder_virtual
						{
							OFFSET 0.000000 0.000000 0.000000
							CHANNELS 3 Xrotation Yrotation Zrotation
							JOINT LeftShoulder
							{
								OFFSET 8.476499 7.247704 -3.868750
								CHANNELS 3 Xrotation Yrotation Zrotation
								JOINT LeftShoulder_split
								{
									OFFSET 8.476499 7.247704 -3.868750
									CHANNELS 3 Xrotation Yrotation Zrotation
									JOINT LeftArm
									{
										OFFSET 9.308998 -2.777710 0.208600
										CHANNELS 3 Xrotation Yrotation Zrotation
										JOINT LeftForeArm
										{
											OFFSET 29.972298 0.000000 0.000000
											CHANNELS 3 Xrotation Yrotation Zrotation
											JOINT LeftHand
											{
												OFFSET 26.026505 0.000000 0.000000
												CHANNELS 3 Xrotation Yrotation Zrotation
												End Site
												{
													OFFSET 0 0 0
												}
											}
										}
									}
								}
							}
						}
						JOINT RightShoulder_virtual
						{
							OFFSET 0.000000 0.000000 0.000000
							CHANNELS 3 Xrotation Yrotation Zrotation
							JOINT RightShoulder
							{
								OFFSET -7.570500 7.247704 -3.868750
								CHANNELS 3 Xrotation Yrotation Zrotation
								JOINT RightShoulder_split
								{
									OFFSET -7.570500 7.247704 -3.868750
									CHANNELS 3 Xrotation Yrotation Zrotation
									JOINT RightArm
									{
										OFFSET -9.308998 -2.777710 0.208500
										CHANNELS 3 Xrotation Yrotation Zrotation
										JOINT RightForeArm
										{
											OFFSET -29.972300 0.000000 0.000000
											CHANNELS 3 Xrotation Yrotation Zrotation
											JOINT RightHand
											{
												OFFSET -26.026505 0.000000 0.000000
												CHANNELS 3 Xrotation Yrotation Zrotation
												End Site
												{
													OFFSET 0 0 0
												}
											}
										}
									}
								}
							}
						}
					}
				}
			}
		}
	}
}
MOTION
Frames: 6
Frame Time: 0.03333333
6.399508 138.682648 -3.010607 0.000000 0.000000 0.000000 4.283416 11.054629 -0.603738 -50.534343 0.280813 -0.185919 61.014831 9.736776 0.772809 19.479819 4.068910 -13.850633 -8.372647 4.312216 1.743120 0.000000 0.000000 0.000000 5.504909 12.163582 -0.798944 -26.558088 -8.090419 -18.148514 47.052497 15.734466 15.420875 -2.383519 -24.901843 13.225326 -10.937667 7.220422 0.787965 0.000000 0.000000 0.000000 5.042862 11.826272 -0.392654 -6.977148 0.542816 13.454926 -1.751743 3.412631 -1.096761 0.074413 -0.631806 -0.072198 0.000000 0.000000 0.000000 8.464910 4.457588 0.436167 -11.248924 14.120955 -6.707165 -57.414447 -45.986841 -35.834222 0.000000 0.000000 0.000000 -0.952039 3.744263 -1.238766 14.642281 -9.197006 42.296131 6.489941 5.551833 0.822281 -68.488178 -21.930397 5.661180 -32.448309 -17.482221 3.725470 0.000000 0.000000 0.000000 1.001973 3.082308 0.474955 -8.889067 -20.279569 -48.359081 -5.102879 3.885557 -3.162928 -81.417713 26.538374 3.191234 -44.529511 17.621599 38.522847 0.000000 0.000000 0.000000 
6.187898 139.276474 -5.706152 0.000000 0.000000 0.000000 3.897758 9.149360 -0.135978 -50.454805 -0.597580 -1.264693 63.068252 8.534810 1.313864 19.322310 2.269327 -16.080641 -8.250004 3.959908 2.298407 0.000000 0.000000 0.000000 5.472131 10.384009 -0.376579 -25.900132 -8.844811 -17.103279 51.704180 17.375899 15.213341 -0.575446 -25.071995 11.748454 -11.383931 7.231901 2.237998 0.000000 0.000000 0.000000 5.463937 10.854851 0.189436 -7.544204 0.428875 13.150205 -2.032131 3.538389 -1.127906 0.068256 -0.585275 -0.137426 0.000000 0.000000 0.000000 8.491857 4.560180 0.300487 -11.388140 13.504235 -5.954845 -56.164891 -46.374024 -35.077994 0.000000 0.000000 0.000000 -0.924374 3.798339 -1.100354 14.201760 -9.183953 43.024400 4.844573 5.738850 0.412120 -70.421491 -24.477813 3.894692 -31.291016 -18.844946 4.750187 0.000000 0.000000 0.000000 1.402468 3.188236 0.505196 -9.362425 -20.189378 -48.982872 -3.285330 2.855916 -3.001855 -84.455870 24.619523 5.056567 -46.613060 19.102938 39.541335 0.000000 0.000000 0.000000 
5.877687 140.958328 -9.579901 0.000000 0.000000 0.000000 3.011097 5.122012 0.415167 -48.843776 -1.527105 -3.174511 64.308683 6.700065 1.689985 16.710007 0.838214 -16.611428 -8.463246 3.375712 2.771112 0.000000 0.000000 0.000000 5.134308 6.452998 0.150195 -22.140318 -9.112015 -15.562938 52.221564 18.286723 14.451301 4.052141 -24.346406 12.492203 -19.989117 6.736827 4.343713 0.000000 0.000000 0.000000 5.556651 8.120143 0.545969 -7.384952 1.307090 12.414072 -2.011435 3.877889 -0.763513 0.091123 -0.469660 -0.203060 0.000000 0.000000 0.000000 8.354705 4.972238 0.564677 -11.994429 12.485136 -4.576439 -53.742100 -47.241092 -34.108783 0.000000 0.000000 0.000000 -0.899701 4.062181 -0.617021 13.379024 -7.173486 43.997999 3.667182 6.461077 -1.035603 -76.866512 -25.084375 -0.489363 -31.787847 -22.311692 5.212799 0.000000 0.000000 0.000000 1.693381 3.563117 0.961458 -9.953916 -20.112974 -49.931422 -2.045809 2.145625 -2.617152 -87.644332 22.699073 7.674448 -47.430531 19.003366 38.642932 0.000000 0.000000 0.000000 
5.214973 143.338959 -13.444002 0.000000 0.000000 0.000000 2.201860 -0.238703 0.904421 -46.678066 -2.230985 -4.928070 64.307317 5.087558 1.349485 12.565841 0.596392 -14.516293 -5.830897 2.857743 1.975599 0.000000 0.000000 0.000000 4.435629 -0.094305 0.631253 -16.377849 -9.070738 -14.098024 47.357304 18.073903 13.131845 7.841378 -23.022423 13.580513 -31.162417 5.708477 6.000378 0.000000 0.000000 0.000000 5.403433 2.998955 0.540960 -6.479209 3.108072 11.514819 -1.670351 4.446479 -0.087739 0.080793 -0.359487 -0.254873 0.000000 0.000000 0.000000 7.879531 5.704946 1.129682 -12.962096 11.187476 -2.769602 -50.554465 -48.274414 -33.218273 0.000000 0.000000 0.000000 -0.644461 4.571073 0.095655 12.314315 -3.623490 44.906161 3.304987 6.865106 -2.186263 -84.481415 -23.092496 -5.388124 -33.780698 -26.461633 5.168218 0.000000 0.000000 0.000000 1.918001 4.266677 1.680820 -10.447506 -19.806889 -51.146198 -1.945029 2.643821 -2.400571 -90.190804 21.239655 10.742472 -46.714228 17.451381 35.846851 0.000000 0.000000 0.000000 
4.558139 146.034836 -17.011042 0.000000 0.000000 0.000000 1.786688 -6.892319 1.226444 -44.859528 -2.438236 -5.872249 62.262031 3.868556 0.216219 8.779862 1.581647 -10.336825 -0.088793 2.436298 -0.153118 0.000000 0.000000 0.000000 3.825053 -8.642295 1.039492 -10.326551 -9.044876 -13.567831 38.694941 17.331376 11.253644 9.706578 -21.275455 13.687439 -34.262319 5.312011 6.134565 0.000000 0.000000 0.000000 5.080221 -4.214481 0.282463 -5.073073 5.668229 10.601493 -1.098147 5.252677 0.798176 0.114739 -0.380778 -0.227263 0.000000 0.000000 0.000000 7.138862 6.698983 1.879521 -13.925170 9.787832 -0.723250 -46.789419 -49.042357 -32.569579 0.000000 0.000000 0.000000 -0.110199 5.355301 0.879222 11.221008 0.857706 45.403119 3.630364 6.590750 -2.342219 -90.404951 -19.540831 -9.041917 -36.656792 -29.487593 5.008170 0.000000 0.000000 0.000000 2.037416 5.303010 2.495440 -10.822616 -18.980068 -52.621208 -2.993553 4.501462 -1.829832 -91.510553 20.617254 13.943703 -44.745129 15.048758 31.701490 0.000000 0.000000 0.000000 
3.791836 148.635651 -20.541536 0.000000 0.000000 0.000000 1.747401 -14.863011 1.427246 -42.879740 -2.407424 -5.857381 57.683406 2.912854 -1.299708 6.797728 3.408057 -5.048908 4.822258 1.950320 -2.099881 0.000000 0.000000 0.000000 3.281368 -17.945344 1.434250 -6.372951 -9.683315 -14.408549 28.843650 16.361689 9.643409 12.181474 -19.590736 13.366213 -26.262707 6.061878 4.427869 0.000000 0.000000 0.000000 4.735289 -12.566086 -0.196858 -3.441820 8.763841 9.679477 -0.427283 6.264326 1.712940 0.244798 -0.499708 -0.109933 0.000000 0.000000 0.000000 6.306365 7.874948 2.663600 -14.514157 8.441330 1.316452 -42.723509 -49.017525 -32.281100 0.000000 0.000000 0.000000 0.573790 6.385169 1.516532 10.500200 5.259202 45.076131 3.820501 5.872977 -1.171807 -92.993108 -15.584866 -10.512770 -39.482404 -30.378106 5.293831 0.000000 0.000000 0.000000 2.182549 6.622728 3.224665 -10.879311 -17.390008 -54.089129 -4.767388 6.010042 -1.096816 -91.650313 20.681427 17.016387 -42.138476 12.682354 26.978484 0.000000 0.000000 0.000000 
